<?xml version="1.0" encoding="utf-8"?>
<!-- Generator: Adobe Illustrator 21.0.2, SVG Export Plug-In . SVG Version: 6.00 Build 0)  -->
<svg version="1.1" id="Layer_1" xmlns="http://www.w3.org/2000/svg" xmlns:xlink="http://www.w3.org/1999/xlink" x="0px" y="0px"
	 viewBox="0 0 518 117.7" style="enable-background:new 0 0 518 117.7;" xml:space="preserve">
<style type="text/css">
	.st0{fill:#0076E5;}
	.st1{fill:#00ADEF;}
</style>
<g id="_x23_0076e5ff">
	<path class="st0" d="M183,35.3c13.6,0,27.3,0,40.9,0c0.2,4.8,0.2,9.6-0.1,14.3c-8.2-0.1-16.4-0.1-24.5,0c0.3,1.6-0.7,3.8,0.6,5.1
		c7.8,0.2,15.6-0.1,23.4,0.1c0.1,4.7,0.1,9.5,0,14.2c-8,0.1-16.1-0.1-24.1,0.1c0.1,6.7,0.1,13.4,0,20.1c-5.4,0.1-10.9,0.1-16.3,0
		C182.9,71.3,182.9,53.3,183,35.3z"/>
	<path class="st0" d="M329.6,35.3c5.4,0,10.8,0,16.2,0c0.2,6.7,0,13.3,0.2,20c4.9-6.5,9.4-13.3,14.2-20c6.6,0,13.3-0.1,19.9,0
		c-6,7.9-12.5,15.4-18.8,23.2c-0.5,0.8-1.9,1.9-0.9,2.9c6.6,9.4,13.9,18.4,20.3,28c-6.6,0.3-13.1,0.2-19.7,0.1
		c-4-6.4-7.9-12.8-12.2-19c-1,1.3-2,2.5-2.7,3.9c-0.5,5-0.1,10-0.2,14.9c-5.4,0.1-10.9,0.1-16.3,0C329.5,71.3,329.3,53.3,329.6,35.3
		z"/>
	<path class="st0" d="M278.2,47.2c4-2.2,9.4,1.3,8.7,5.9c-0.2,4.4-5.8,6.9-9.3,4.4C274,55.1,274.3,49,278.2,47.2z"/>
	<path class="st0" d="M258.9,49.6c3.6-0.1,7.2-0.1,10.8,0.1c-0.1,13.2-0.1,26.5,0,39.7c-3.6,0.2-7.2,0.2-10.8,0.1
		C258.9,76.2,258.9,62.9,258.9,49.6z"/>
	<path class="st0" d="M230,63.2c6.3-4.8,16.6-4.3,21.6,2.2c3,3.7,3.5,8.7,3.3,13.3c-6.5,0-13-0.3-19.5,0.2c3,4.7,9,3.2,13.4,1.7
		c1.3,2.2,2.7,4.3,4.1,6.4c-7,4.3-16.8,4.9-23.4-0.4C222.4,80.8,222.7,68.6,230,63.2 M235.3,71.4c3.2,0.3,6.3,0.3,9.5,0
		C243.5,66.9,236.6,67,235.3,71.4z"/>
	<path class="st0" d="M393.3,60.5c6.9-1.7,15.5,0.5,19,7.2c4.3,7.2,1,17.6-6.7,20.9c-8.1,3.9-19.7,0.7-22.8-8.3
		C379.6,72.3,384.6,62.2,393.3,60.5 M395.3,70.2c-3.9,2.4-3,10,1.9,10.6c3.7,0.7,6.8-3,6-6.6C403.1,70.3,398.4,68.3,395.3,70.2z"/>
	<path class="st0" d="M429.5,62.8c4.2-3.2,10.2-4,14.6-0.8c5.8,4,6.5,12.1,5.1,18.5c-1.1,5.3-5.8,9.7-11.3,9.7
		c-3.3,0.4-6.2-1.4-8.8-3.1c0.1,4.4,0.1,8.9,0,13.4c-3.5,0.1-7.1,0.1-10.6,0c-0.1-13.3-0.1-26.6,0-39.9c3.2,0,6.4,0,9.6-0.1
		C428.4,61.1,429.1,62.2,429.5,62.8 M430.4,70.3c-1.6,0.5-1.1,2.5-1.3,3.8c0.2,2.1-0.8,5.2,1.8,6.1c3.5,2,8.2-1.1,7.8-5.1
		C439.3,70.7,433.9,67.9,430.4,70.3z"/>
	<path class="st0" d="M454,60.5c3.4,0.1,6.9,0.1,10.3,0.1c0.2,0.6,0.5,1.7,0.7,2.3c4.7-3.9,12.2-3.9,16.4,0.7
		c4.9,5.5,4.9,14.3,1.7,20.7c-3.5,6.6-13,7.7-18.4,2.9c-0.1,4.5,0,9-0.1,13.4c-3.5-0.1-7.1-0.1-10.6,0
		C453.9,87.3,453.9,73.9,454,60.5 M466.2,70.1c-2.6,1.2-1.3,4.7-1.6,7c-0.5,3,3.5,4.3,5.8,3.4c4-1,5-6.6,2.4-9.4
		C471.3,69.2,468.3,69.1,466.2,70.1z"/>
	<path class="st0" d="M492,64.1c6.1-5.8,17.4-5.6,22.7,1.2c3,3.7,3.5,8.7,3.4,13.3c-6.5,0-13.1-0.3-19.6,0.2c3,4.7,9,3.2,13.3,1.7
		c1.3,2.2,2.6,4.3,3.9,6.4c-6.9,4.3-16.7,4.9-23.3-0.4C485.8,81.1,485.7,69.9,492,64.1 M498.3,71.4c3.2,0.3,6.3,0.3,9.5,0
		C506.5,66.9,499.6,66.9,498.3,71.4z"/>
	<path class="st0" d="M275.7,60.6c3.5-0.1,7.1-0.1,10.6,0c0.1,9.6,0.1,19.3,0,28.9c-3.6,0.1-7.1,0.1-10.6,0
		C275.6,79.9,275.6,70.3,275.7,60.6z"/>
	<path class="st0" d="M289.7,60.7c3.7-0.1,7.5-0.3,11.2,0c1.9,1.8,2.9,4.3,4.3,6.4c1.3-2.2,2.6-4.3,3.8-6.5
		c3.9-0.1,7.7-0.1,11.6,0.1c-2.3,5-6.2,9.1-8.2,14.2c2.7,5,6.3,9.5,9,14.6c-3.8,0.1-7.5,0.4-11.3,0c-2-2.2-3.3-4.9-4.8-7.4
		c-1.5,2.4-2.8,4.9-4.5,7.1c-3.7,1-7.7,0.3-11.5,0.3c2.6-5.1,6.2-9.5,8.8-14.5C296.1,69.8,292,65.6,289.7,60.7z"/>
</g>
<g id="_x23_00adefff">
	<path class="st1" d="M92.2,2.1c22.6-0.4,45.2-0.2,67.8-0.1c-2.7,9.6-5.6,19.1-8.5,28.6c-22.6,0-45.1,0-67.7,0
		C86.3,21,89.5,11.6,92.2,2.1z"/>
	<path class="st1" d="M75.4,46.2c6.5-0.5,13-0.2,19.6-0.3c16.1,0.1,32.2-0.1,48.4,0.1c-2.7,9.6-5.5,19.2-8.5,28.7
		c-22.6-0.1-45.1-0.1-67.7,0C69.7,65.2,72.8,55.8,75.4,46.2z"/>
	<path class="st0" d="M50.4,0.2c10.1-0.4,20.1-0.2,30.2-0.1c-11.7,39.2-23.2,78.4-35,117.5c-7.8-0.1-15.7,0.1-23.5,0
		c-1.7,0.2-2.1-1.7-2.8-2.9C13.2,100.9,6.9,87.1,0.7,73.2c-1.6-2.8-0.3-5.9,0.5-8.7C5,52.7,8.2,40.7,12.1,28.8
		C18.5,42,24.1,55.7,30.3,69C36.7,46,44,23.2,50.4,0.2z"/>
</g>
</svg>
